DataType=double
version=3
OpenSimVersion=4.5
endheader
time	ground_force_1_vx	ground_force_1_vy	ground_force_1_vz	ground_force_1_px	ground_force_1_py	ground_force_1_pz	ground_moment_1_mx	ground_moment_1_my	ground_moment_1_mz	ground_force_2_vx	ground_force_2_vy	ground_force_2_vz	ground_force_2_px	ground_force_2_py	ground_force_2_pz	ground_moment_2_mx	ground_moment_2_my	ground_moment_2_mz
3	-61.87405552	663.3490163	56.10786553	0.8757186662149481	0	0.4002975569934826	0	4.855095006135878	0	0	0	0	0.8089	0	0.745900015	0	0	0
3.005	-60.22429866	657.1299379	54.83974962	0.8731785314632639	0	0.4002222048766687	0	4.596832446373014	0	0	0	0	0.8089	0	0.745900015	0	0	0
3.01	-58.58947731	651.7474568	53.39953498	0.8705612707900511	0	0.4002282195963854	0	4.377004121885927	0	0	0	0	0.8089	0	0.745900015	0	0	0
3.015	-57.03488541	647.0445684	51.6738446	0.8679098687501244	0	0.400315958928621	0	4.218025768869731	0	0	0	0	0.8089	0	0.745900015	0	0	0
3.02	-55.2659567	642.8721388	49.88901127	0.8648703897244824	0	0.4004889799550636	0	4.055757312851508	0	0	0	0	0.8089	0	0.745900015	0	0	0
3.025	-53.03831597	639.1962712	48.34492257	0.8612839332667542	0	0.4007303413981975	0	3.836562631392293	0	0	0	0	0.8089	0	0.745900015	0	0	0
3.03	-50.55067417	636.0347279	47.08131741	0.8574025976751609	0	0.4010108591700546	0	3.596914797122173	0	0	0	0	0.8089	0	0.745900015	0	0	0
3.035	-48.14390754	633.4064562999999	45.91641024	0.8534050047382268	0	0.4013000785254889	0	3.401587419997905	0	0	0	0	0.8089	0	0.745900015	0	0	0
3.04	-45.77061742	631.2962126	44.76226364	0.8490840748860183	0	0.4015926145389491	0	3.240690606534145	0	0	0	0	0.8089	0	0.745900015	0	0	0
3.045	-43.11566615	629.6106264	43.71697567	0.8442260117083054	0	0.4019015986797382	0	3.04573964013433	0	0	0	0	0.8089	0	0.745900015	0	0	0
3.05	-40.19541432	628.2362482	42.90736194	0.8390002513885365	0	0.4022340570898081	0	2.818296635633308	0	0	0	0	0.8089	0	0.745900015	0	0	0
3.055	-37.39604552	627.1874433	42.31020228	0.8337484281186179	0	0.4025642178199324	0	2.619910838853678	0	0	0	0	0.8089	0	0.745900015	0	0	0
3.06	-34.88406052	626.5038293	41.77693539	0.8285644668956511	0	0.4028828166837801	0	2.473234379440198	0	0	0	0	0.8089	0	0.745900015	0	0	0
3.065	-32.40292346	626.0415805	41.1571227	0.8232716736988865	0	0.403230154614448	0	2.334332575268472	0	0	0	0	0.8089	0	0.745900015	0	0	0
3.07	-29.79736263	625.6264184	40.4365799	0.817706699783695	0	0.4036432849418568	0	2.161607000406976	0	0	0	0	0.8089	0	0.745900015	0	0	0
3.075	-27.27987187	625.3445459	39.73338014	0.8120129532391722	0	0.4040862685778852	0	1.981500966152629	0	0	0	0	0.8089	0	0.745900015	0	0	0
3.08	-25.0303072	625.4209397	39.15309551	0.8065043090668105	0	0.4044949759115486	0	1.825314734915534	0	0	0	0	0.8089	0	0.745900015	0	0	0
3.085	-22.91702755	625.8775776	38.67101204	0.8012125364809897	0	0.4048801714952931	0	1.676946019003865	0	0	0	0	0.8089	0	0.745900015	0	0	0
3.09	-20.73132868	626.608752	38.13216153	0.7958529315009943	0	0.4052791511224771	0	1.526723204237374	0	0	0	0	0.8089	0	0.745900015	0	0	0
3.095	-18.46078007	627.6294641	37.47731595	0.7902921190358971	0	0.4056980519618995	0	1.379778149656656	0	0	0	0	0.8089	0	0.745900015	0	0	0
3.1	-16.19737108	629.0929913	36.80390362	0.7847729618192989	0	0.4060817944469787	0	1.238792803425228	0	0	0	0	0.8089	0	0.745900015	0	0	0
3.105	-13.96609188	631.0119263	36.25715145	0.7794711714569188	0	0.4064009385026462	0	1.121541613907437	0	0	0	0	0.8089	0	0.745900015	0	0	0
3.11	-11.68037027	633.1459389	35.85143428	0.7741799057265026	0	0.4066965949903835	0	1.013525631955267	0	0	0	0	0.8089	0	0.745900015	0	0	0
3.115	-9.193939073999999	635.2834927	35.46750035	0.7686888507176997	0	0.4070128461076381	0	0.9041229134225548	0	0	0	0	0.8089	0	0.745900015	0	0	0
3.12	-6.483791914	637.4792208	35.01042997	0.763079517694097	0	0.4073172971950915	0	0.802305601615612	0	0	0	0	0.8089	0	0.745900015	0	0	0
3.125	-3.686837225	639.7896286	34.55000961	0.7575492189279852	0	0.4075651791269964	0	0.713349515596442	0	0	0	0	0.8089	0	0.745900015	0	0	0
3.13	-0.8700634229999999	642.0490533	34.25284798	0.7521166180771101	0	0.407769862250596	0	0.6336706132482066	0	0	0	0	0.8089	0	0.745900015	0	0	0
3.135	2.082278433	644.0872269	34.19511721	0.7466691895231389	0	0.4079637828732454	0	0.5300000603686756	0	0	0	0	0.8089	0	0.745900015	0	0	0
3.14	5.234684633	645.9256145000001	34.29417118	0.7410904891861623	0	0.4081572074503159	0	0.4033171271827247	0	0	0	0	0.8089	0	0.745900015	0	0	0
3.145	8.493103844	647.6540948000001	34.41448928	0.7354074107740425	0	0.4083448543825762	0	0.2983002693350056	0	0	0	0	0.8089	0	0.745900015	0	0	0
3.15	11.77410351	649.3003459	34.5569323	0.7297245188570783	0	0.4085348724000112	0	0.2125433570057891	0	0	0	0	0.8089	0	0.745900015	0	0	0
3.155	15.11240675	650.8731702	34.85801195	0.7240593546840312	0	0.4087428015477965	0	0.1080062510661093	0	0	0	0	0.8089	0	0.745900015	0	0	0
3.16	18.53448247	652.4744162	35.39514549	0.7183187241886363	0	0.408972136691791	0	-0.03364761650170012	0	0	0	0	0.8089	0	0.745900015	0	0	0
3.165	21.96827897	654.2722288	36.04996596	0.7124427831933771	0	0.4092173108245483	0	-0.2041969692548471	0	0	0	0	0.8089	0	0.745900015	0	0	0
3.17	25.33237409	656.383998	36.61198818	0.706477179702426	0	0.4094676833451838	0	-0.3651238933288252	0	0	0	0	0.8089	0	0.745900015	0	0	0
3.175	28.64259802	658.8461906	37.03514051	0.7004929652448529	0	0.4097163255966878	0	-0.5094527773171444	0	0	0	0	0.8089	0	0.745900015	0	0	0
3.18	31.95317714	661.6822963	37.44446074	0.6945137821844375	0	0.409945609252464	0	-0.6737734915166564	0	0	0	0	0.8089	0	0.745900015	0	0	0
3.185	35.26613076	664.8437283	37.90808981	0.6885513117380591	0	0.4101490529797699	0	-0.8533506990924833	0	0	0	0	0.8089	0	0.745900015	0	0	0
3.19	38.55813118	668.2062618	38.30672291	0.6826518079153834	0	0.4103372281971182	0	-1.008771016184975	0	0	0	0	0.8089	0	0.745900015	0	0	0
3.195	41.85581976	671.6816308	38.49404044	0.6768056295588781	0	0.4105115335713549	0	-1.119215655413366	0	0	0	0	0.8089	0	0.745900015	0	0	0
3.2	45.22799164	675.2233149	38.47848872	0.6709434939082802	0	0.4106549250746112	0	-1.18743025557843	0	0	0	0	0.8089	0	0.745900015	0	0	0
3.205	48.70910417	678.6939555	38.41037109	0.6650656364519438	0	0.4107682027699272	0	-1.244168805127533	0	0	0	0	0.8089	0	0.745900015	0	0	0
3.21	52.25226373	681.9089004	38.41035986	0.6592794225858608	0	0.4108689103463781	0	-1.30493157667885	0	0	0	0	0.8089	0	0.745900015	0	0	0
3.215	55.77967116	684.8456277	38.45677676	0.6536206393805261	0	0.4109456775333721	0	-1.343048135453271	0	0	0	0	0.8089	0	0.745900015	0	0	0
3.22	59.33382338	687.5252138	38.48361141	0.6480201930092923	0	0.4109959201379606	0	-1.358302028447725	0	0	0	0	0.8089	0	0.745900015	0	0	0
3.225	63.04207434	689.8813731	38.47086062	0.642437756345811	0	0.4110315366234353	0	-1.368535262823343	0	0	0	0	0.8089	0	0.745900015	0	0	0
3.23	66.90140789	691.7874654	38.48594554	0.636917799983198	0	0.4110717654309816	0	-1.374458178489891	0	0	0	0	0.8089	0	0.745900015	0	0	0
3.235	70.78378637	693.2205675	38.62465175	0.6315244446736186	0	0.4111205160909989	0	-1.371151244124012	0	0	0	0	0.8089	0	0.745900015	0	0	0
3.24	74.67737112	694.2154885	38.86415014	0.6262662801354091	0	0.4111642882257099	0	-1.347331992274127	0	0	0	0	0.8089	0	0.745900015	0	0	0
3.245	78.71624469	694.6789487	39.11154086	0.6210248393495856	0	0.4112270635633311	0	-1.298613074398423	0	0	0	0	0.8089	0	0.745900015	0	0	0
3.25	82.96239511	694.4917374	39.2662376	0.6157032135373384	0	0.4113140887920719	0	-1.232372409155209	0	0	0	0	0.8089	0	0.745900015	0	0	0
3.255	87.31937342000001	693.5551626	39.34077077	0.6103448368574712	0	0.4114176346346564	0	-1.142058880062259	0	0	0	0	0.8089	0	0.745900015	0	0	0
3.26	91.69663958	691.8120249999999	39.38628701	0.6050804193448879	0	0.4115192004194689	0	-1.048603484131067	0	0	0	0	0.8089	0	0.745900015	0	0	0
3.265	96.09801234	689.1823391	39.39335785	0.5998452786402901	0	0.4116197445538782	0	-0.9863967891404144	0	0	0	0	0.8089	0	0.745900015	0	0	0
3.27	100.5841786	685.5155918	39.2738653	0.5944583983990758	0	0.411748437710631	0	-0.9569359886396374	0	0	0	0	0.8089	0	0.745900015	0	0	0
3.275	105.1458368	680.7086749	38.92614724	0.5889174780889872	0	0.4119092320863795	0	-0.9560675756405228	0	0	0	0	0.8089	0	0.745900015	0	0	0
3.28	109.6452527	674.6869412	38.37482923	0.5834139705485371	0	0.4120924000275031	0	-0.966655632011836	0	0	0	0	0.8089	0	0.745900015	0	0	0
3.285	113.9147854	667.3753283	37.69771119	0.5780603323910369	0	0.4122728467565731	0	-0.9761517480655755	0	4.969690525	20.09936248	-0.199523503	0.9841682097009476	0	0.5344697998760823	0	-0.3066562333640261	0
3.29	117.9038928	658.5663684	36.93009356	0.5727266402094319	0	0.4124645478298667	0	-1.010640970691826	0	10.16851272	40.13138003	2.012160846	0.9724659482453137	0	0.5338940771369158	0	-0.1662735293256157	0
3.295	121.6474275	648.0151092	36.00142215	0.5673084872729145	0	0.4126785121397529	0	-1.066413946768323	0	15.76876562	68.50072772999999	5.848870037	0.9676221820891449	0	0.5355060566057714	0	-0.0004345051889201867	0
3.3	125.0360662	635.517479	34.82058637	0.5619408036378641	0	0.4128829313216492	0	-1.098055178951608	0	20.29191173	105.1471907	11.51610353	0.964746482734417	0	0.5372765377205447	0	0.2341084317162712	0
3.305	127.7770216	620.7448235000001	33.4270188	0.5567829224310676	0	0.4130692202684022	0	-1.08910264589953	0	21.90579868	148.5372915	18.60380518	0.9616484137544005	0	0.5384876566024457	0	0.4985057838417317	0
